<svg enable-background="new 0 0 100 100" height="100" viewBox="0 0 100 100" width="100" xmlns="http://www.w3.org/2000/svg"><path d="m49.3 60.6-33.9 4.3 9.5 14.3 35.3-17.2z" fill="#b7ca9d"/><path d="m49.3 40.3 34-4.3-9.5-14.3-35.4 17.2z" fill="#3c4929"/><path d="m38.4 38.9 35.4-5.7v-11.5l-35.4 9.5z" fill="#4b612c"/><path d="m15.4 55.3 33.9 3.4 33.3-8.2-33.3-8.2-33.9 3.4z" fill="#4b612c"/><path d="m83.3 55.3-34 3.4v-16.4l34 3.4z" fill="#759c3e"/><path d="m15.4 36 33.9-26.5 18.1 21.8-35.6 6.8z" fill="#3c4929"/><path d="m15.4 26.4 33.9-16.9v16.4l-33.9 10.1z" fill="#4b612c"/><g fill="#759c3e"><path d="m73.8 21.7 9.5 4.7v9.6l-9.5-2.8z"/><path d="m60.2 62-35.3 5.7v11.5l35.3-9.5z"/><path d="m67.4 31.3-18.1-5.4v-16.4l18.1 9z"/></g><path d="m83.3 64.9-34 26.6-18.1-21.9 35.6-6.8z" fill="#b7ca9d"/><path d="m83.3 74.5-34 17v-16.4l34-10.2z" fill="#759c3e"/><path d="m31.2 69.6 18.1 5.5v16.4l-18.1-9.1z" fill="#4b612c"/><path d="m24.9 79.2-9.5-4.7v-9.6l9.5 2.8z" fill="#4b612c"/></svg>