<svg viewBox="0 0 128 128" xmlns="http://www.w3.org/2000/svg" xmlns:xlink="http://www.w3.org/1999/xlink"><linearGradient id="a" gradientUnits="userSpaceOnUse" x2="0" y1="7.03" y2="120.79"><stop offset="0" stop-color="#4387fd"/><stop offset="1" stop-color="#4683ea"/></linearGradient><clipPath id="b"><path d="m27.791 115.22-26.25-45.47a11.5 11.5 0 0 1 0-11.499l26.25-45.47a11.499 11.499 0 0 1 9.959-5.75h52.5c4.108 0 7.904 2.192 9.959 5.75l26.25 45.47a11.5 11.5 0 0 1 0 11.499l-26.25 45.47a11.498 11.498 0 0 1 -9.959 5.749h-52.5a11.5 11.5 0 0 1 -9.958-5.749"/></clipPath><path d="m27.791 115.22-26.25-45.47a11.5 11.5 0 0 1 0-11.499l26.25-45.47a11.499 11.499 0 0 1 9.959-5.75h52.5c4.108 0 7.904 2.192 9.959 5.75l26.25 45.47a11.5 11.5 0 0 1 0 11.499l-26.25 45.47a11.498 11.498 0 0 1 -9.959 5.749h-52.5a11.5 11.5 0 0 1 -9.958-5.749" fill="url(#a)"/><path clip-path="url(#b)" d="m124.05 82.86-34.42-34.42-25.63-11.44-24.5 13.31-1.027 29.34 42.547 42.54 16.65-.15z" opacity=".07"/><path d="m89.03 47.993-23.676-13.67a2.7 2.7 0 0 0 -2.699 0l-23.676 13.67a2.698 2.698 0 0 0 -1.349 2.337v27.339c0 .964.514 1.855 1.349 2.337l23.676 13.67a2.7 2.7 0 0 0 2.699 0l23.676-13.67a2.698 2.698 0 0 0 1.349-2.337v-27.339c0-.964-.514-1.855-1.349-2.337m-3.248 27.06-8.26-4.769v-12.563l-12.198 7.04v14.09l10.879-6.281 8.26 4.769-20.459 11.812-20.459-11.812 8.26-4.769 10.88 6.281v-14.09l-12.198-7.04v12.563l-8.26 4.769v-23.624l20.459-11.812v9.538l-10.88 6.281 12.198 7.04 12.198-7.04-10.879-6.281v-9.538l20.459 11.812z" fill="#fff"/></svg>